<?xml version="1.0" standalone="no"?>
<!DOCTYPE svg PUBLIC "-//W3C//DTD SVG 20010904//EN"
 "http://www.w3.org/TR/2001/REC-SVG-20010904/DTD/svg10.dtd">
<svg version="1.0" xmlns="http://www.w3.org/2000/svg"
 width="256.000000pt" height="256.000000pt" viewBox="0 0 256.000000 256.000000"
 preserveAspectRatio="xMidYMid meet">

<g transform="translate(0.000000,256.000000) scale(0.100000,-0.100000)"
fill="#000000" stroke="none">
<path d="M960 2320 l0 -80 -320 0 -320 0 0 -80 0 -80 -80 0 -80 0 0 -160 0
-160 -80 0 -80 0 0 -240 0 -240 80 0 80 0 0 -80 0 -80 80 0 80 0 0 -320 0
-320 80 0 80 0 0 -80 0 -80 80 0 80 0 0 -80 0 -80 640 0 640 0 0 80 0 80 80 0
80 0 0 80 0 80 80 0 80 0 0 320 0 320 80 0 80 0 0 80 0 80 80 0 80 0 0 240 0
240 -80 0 -80 0 0 160 0 160 -80 0 -80 0 0 80 0 80 -320 0 -320 0 0 80 0 80
-320 0 -320 0 0 -80z m640 -160 l0 -80 80 0 80 0 0 -160 0 -160 80 0 80 0 0
-160 0 -160 80 0 80 0 0 240 0 240 -80 0 -80 0 0 80 0 80 80 0 80 0 0 -80 0
-80 80 0 80 0 0 -80 0 -80 80 0 80 0 0 -160 0 -160 -160 0 -160 0 0 -480 0
-480 -160 0 -160 0 0 -80 0 -80 -160 0 -160 0 0 240 0 240 -160 0 -160 0 0
-240 0 -240 -160 0 -160 0 0 80 0 80 -80 0 -80 0 0 80 0 80 -80 0 -80 0 0 400
0 400 -160 0 -160 0 0 160 0 160 80 0 80 0 0 80 0 80 80 0 80 0 0 80 0 80 80
0 80 0 0 -80 0 -80 -80 0 -80 0 0 -240 0 -240 80 0 80 0 0 160 0 160 80 0 80
0 0 160 0 160 80 0 80 0 0 80 0 80 320 0 320 0 0 -80z"/>
<path d="M960 1520 l0 -80 80 0 80 0 0 80 0 80 -80 0 -80 0 0 -80z"/>
<path d="M1440 1520 l0 -80 80 0 80 0 0 80 0 80 -80 0 -80 0 0 -80z"/>
<path d="M960 960 l0 -160 80 0 80 0 0 80 0 80 160 0 160 0 0 -80 0 -80 80 0
80 0 0 160 0 160 -320 0 -320 0 0 -160z"/>
</g>
</svg>
